# xmcd
#
# Track frame offsets: 
#        150
#        25268
#        39309
#        48720
#        57207
#        70378
#        78332
#        92679
#        104228
#        118042
#        131660
#        141503
#
# Disc length: 2011 seconds
#
# Revision: 0
# Processed by: cddbd v1.5.2PL0 Copyright (c) Steve Scherf et al.
# Submitted via: ExactAudioCopy v1.3
#
DISCID=b107d90c
DTITLE=Marty Robbins - Return Of The Gunfighter
DYEAR=1963
DGENRE=Country
TTITLE0=San Angelo
TTITLE1=Man Walks Among Us
TTITLE2=Tall Handsome Stranger
TTITLE3=Dusty Winds
TTITLE4=The Master's Call
TTITLE5=The Fastest Gun Around
TTITLE6=Old Red
TTITLE7=The Bend In The River
TTITLE8=Johnny Fedavo
TTITLE9=Abilene Rose
TTITLE10=Doggone Cowboy
TTITLE11=The Red Hills of Utah
EXTD=
EXTT0=
EXTT1=
EXTT2=
EXTT3=
EXTT4=
EXTT5=
EXTT6=
EXTT7=
EXTT8=
EXTT9=
EXTT10=
EXTT11=
PLAYORDER=
